<mxfile host="app.diagrams.net" agent="Mozilla/5.0 (X11; Linux x86_64; rv:128.0) Gecko/20100101 Firefox/128.0" version="26.1.0">
  <diagram name="Page-1" id="e3a06f82-3646-2815-327d-82caf3d4e204">
    <mxGraphModel dx="1434" dy="761" grid="1" gridSize="10" guides="1" tooltips="1" connect="1" arrows="1" fold="1" page="1" pageScale="1.5" pageWidth="1169" pageHeight="826" background="none" math="0" shadow="0">
      <root>
        <mxCell id="0" style=";html=1;" />
        <mxCell id="1" style=";html=1;" parent="0" />
        <mxCell id="Y8jP039U3rIYcW5EOX9B-5" style="edgeStyle=orthogonalEdgeStyle;rounded=0;orthogonalLoop=1;jettySize=auto;html=1;" edge="1" parent="1" source="Y8jP039U3rIYcW5EOX9B-1" target="Y8jP039U3rIYcW5EOX9B-4">
          <mxGeometry relative="1" as="geometry" />
        </mxCell>
        <mxCell id="Y8jP039U3rIYcW5EOX9B-1" value="" style="image;aspect=fixed;perimeter=ellipsePerimeter;html=1;align=center;shadow=0;dashed=0;spacingTop=3;image=img/lib/active_directory/internet_cloud.svg;" vertex="1" parent="1">
          <mxGeometry x="680" y="580" width="79.37" height="50" as="geometry" />
        </mxCell>
        <mxCell id="Y8jP039U3rIYcW5EOX9B-9" style="edgeStyle=orthogonalEdgeStyle;rounded=0;orthogonalLoop=1;jettySize=auto;html=1;entryX=0.5;entryY=0;entryDx=0;entryDy=0;" edge="1" parent="1" source="Y8jP039U3rIYcW5EOX9B-4" target="Y8jP039U3rIYcW5EOX9B-8">
          <mxGeometry relative="1" as="geometry" />
        </mxCell>
        <mxCell id="Y8jP039U3rIYcW5EOX9B-4" value="" style="fontColor=#0066CC;verticalAlign=top;verticalLabelPosition=bottom;labelPosition=center;align=center;html=1;outlineConnect=0;fillColor=#CCCCCC;strokeColor=#6881B3;gradientColor=none;gradientDirection=north;strokeWidth=2;shape=mxgraph.networks.modem;" vertex="1" parent="1">
          <mxGeometry x="669.6899999999999" y="730" width="100" height="30" as="geometry" />
        </mxCell>
        <mxCell id="Y8jP039U3rIYcW5EOX9B-11" style="edgeStyle=orthogonalEdgeStyle;rounded=0;orthogonalLoop=1;jettySize=auto;html=1;" edge="1" parent="1" source="Y8jP039U3rIYcW5EOX9B-8" target="Y8jP039U3rIYcW5EOX9B-10">
          <mxGeometry relative="1" as="geometry" />
        </mxCell>
        <mxCell id="Y8jP039U3rIYcW5EOX9B-8" value="" style="image;aspect=fixed;perimeter=ellipsePerimeter;html=1;align=center;shadow=0;dashed=0;spacingTop=3;image=img/lib/active_directory/switch.svg;" vertex="1" parent="1">
          <mxGeometry x="680" y="820" width="80" height="80" as="geometry" />
        </mxCell>
        <mxCell id="Y8jP039U3rIYcW5EOX9B-10" value="" style="strokeColor=#666666;html=1;labelPosition=right;align=left;spacingLeft=15;shadow=0;dashed=0;outlineConnect=0;shape=mxgraph.rack.dell.poweredge_r730;" vertex="1" parent="1">
          <mxGeometry x="638.6800000000001" y="960" width="162" height="30" as="geometry" />
        </mxCell>
        <mxCell id="Y8jP039U3rIYcW5EOX9B-12" value="" style="image;sketch=0;aspect=fixed;html=1;points=[];align=center;fontSize=12;image=img/lib/mscae/Docker.svg;" vertex="1" parent="1">
          <mxGeometry x="920" y="960" width="121.95" height="100" as="geometry" />
        </mxCell>
        <mxCell id="Y8jP039U3rIYcW5EOX9B-13" value="" style="image;sketch=0;aspect=fixed;html=1;points=[];align=center;fontSize=12;image=img/lib/mscae/Docker.svg;" vertex="1" parent="1">
          <mxGeometry x="1140" y="960" width="121.96" height="100" as="geometry" />
        </mxCell>
      </root>
    </mxGraphModel>
  </diagram>
</mxfile>
